<svg width="76" height="76" viewBox="0 0 76 76" fill="none" xmlns="http://www.w3.org/2000/svg">
<g clip-path="url(#clip0_0_106)">
<path d="M76 38C76 58.995 58.995 76 38 76C17.005 76 0 58.995 0 38C0 17.005 17.005 0 38 0C58.995 0 76 17.005 76 38Z" fill="url(#paint0_linear_0_106)"/>
<path d="M31.0333 55.4167C29.7983 55.4167 30.02 54.9417 29.5767 53.77L25.9667 41.8633L48.3867 27.8667L51.015 28.5633L48.83 34.5167L31.0333 55.4167Z" fill="#C8DAEA"/>
<path d="M31.0333 55.4167C31.9833 55.4167 32.395 54.9733 32.9333 54.4667C33.7567 53.675 44.3333 43.3833 44.3333 43.3833L37.8417 41.8L31.825 45.6L31.0333 55.1V55.4167Z" fill="#A9C9DD"/>
<path d="M31.6667 45.7267L46.9933 57.0317C48.735 57.9817 50.0017 57.5067 50.445 55.4167L56.6833 26.03C57.3167 23.465 55.7017 22.325 54.0233 23.085L17.4167 37.2083C14.915 38.2217 14.9467 39.615 16.9733 40.2167L26.3783 43.1617L48.1333 29.45C49.1467 28.8167 50.0967 29.165 49.3367 29.8617L31.6667 45.7267Z" fill="url(#paint1_linear_0_106)"/>
</g>
<defs>
<linearGradient id="paint0_linear_0_106" x1="49.1372" y1="12.0112" x2="30.1372" y2="56.3439" gradientUnits="userSpaceOnUse">
<stop stop-color="#37AEE2"/>
<stop offset="1" stop-color="#1E96C8"/>
</linearGradient>
<linearGradient id="paint1_linear_0_106" x1="40.8471" y1="39.1891" x2="48.7638" y2="51.8558" gradientUnits="userSpaceOnUse">
<stop stop-color="#EFF7FC"/>
<stop offset="1" stop-color="white"/>
</linearGradient>
<clipPath id="clip0_0_106">
<rect width="76" height="76" fill="white"/>
</clipPath>
</defs>
</svg>
